<?xml version="1.0" standalone="no"?>
<!DOCTYPE svg PUBLIC "-//W3C//DTD SVG 20010904//EN"
 "http://www.w3.org/TR/2001/REC-SVG-20010904/DTD/svg10.dtd">
<svg version="1.0" xmlns="http://www.w3.org/2000/svg"
 width="200.000000pt" height="200.000000pt" viewBox="0 0 200.000000 200.000000"
 preserveAspectRatio="xMidYMid meet">

<g transform="translate(0.000000,200.000000) scale(0.100000,-0.100000)"
fill="#000000" stroke="none">
<path d="M866 1990 c-413 -65 -727 -347 -833 -749 -22 -82 -26 -117 -26 -241
0 -124 4 -159 26 -241 48 -183 135 -335 263 -463 128 -128 280 -215 463 -263
82 -22 117 -26 241 -26 124 0 159 4 241 26 364 96 630 362 726 726 22 82 26
117 26 241 0 124 -4 159 -26 241 -97 365 -365 633 -726 725 -109 28 -280 39
-375 24z m339 -117 c324 -73 594 -345 669 -673 47 -203 19 -429 -72 -605 -37
-71 -125 -189 -180 -242 -109 -104 -274 -194 -417 -226 -74 -16 -185 -32 -185
-26 0 2 14 44 30 92 17 49 30 89 30 90 0 1 -35 1 -77 0 -62 -1 -78 -4 -83 -18
-5 -14 -8 -13 -17 7 -14 32 -145 77 -168 58 -12 -10 -15 -10 -15 4 0 12 -10
16 -42 17 -39 0 -41 1 -20 12 22 10 21 12 -35 37 -50 23 -59 24 -69 12 -9 -13
-12 -11 -17 10 -4 13 -18 31 -33 38 -14 8 -36 27 -49 42 -13 15 -33 28 -44 28
-12 0 -21 5 -21 10 0 6 6 10 14 10 11 0 11 7 0 42 -7 24 -16 61 -21 83 -7 39
-8 39 -13 -25 l-6 -65 -4 67 c-3 36 -4 108 -2 158 3 84 5 92 27 102 42 19 44
155 1 174 -19 8 -22 19 -26 99 -3 49 -2 119 1 155 l6 65 2 -65 c3 -68 6 -64
29 30 6 25 14 53 17 63 5 12 2 17 -11 18 -15 0 -14 3 6 12 45 21 112 81 126
112 8 19 13 23 14 13 0 -10 1 -18 3 -18 1 0 40 13 87 29 l85 29 -35 10 -35 10
30 1 c183 7 211 13 220 49 6 24 8 25 14 8 7 -19 28 20 77 147 l19 49 60 -7
c33 -3 91 -13 130 -22z"/>
<path d="M1255 1345 l-250 -72 -3 -172 c-1 -94 -1 -171 1 -171 2 0 36 11 75
24 l72 25 0 -29 c0 -19 7 -33 19 -39 34 -19 124 -23 171 -9 42 13 45 16 48 51
3 36 3 37 -23 27 -30 -12 -185 -14 -185 -2 0 4 71 29 158 55 86 26 163 51 170
55 16 9 23 333 7 331 -5 -1 -122 -34 -260 -74z"/>
<path d="M371 1183 c-1 -67 2 -83 14 -83 12 0 13 10 9 48 -14 108 -22 120 -23
35z"/>
<path d="M620 943 c0 -30 3 -32 50 -42 28 -6 57 -11 65 -11 8 0 37 5 65 11 47
10 50 12 50 42 l0 32 -115 0 -115 0 0 -32z"/>
<path d="M1122 898 c-13 -13 -167 -18 -219 -6 -33 7 -33 7 -33 -31 0 -35 3
-40 31 -50 40 -14 152 -14 202 0 36 10 37 12 37 54 0 49 -1 50 -18 33z"/>
<path d="M371 813 l1 -88 14 79 c13 78 12 96 -7 96 -5 0 -8 -39 -8 -87z"/>
</g>
</svg>
